<?xml version="1.0" encoding="UTF-8"?>
<svg width="1171px" height="594px" viewBox="0 0 1171 594" version="1.1" xmlns="http://www.w3.org/2000/svg" xmlns:xlink="http://www.w3.org/1999/xlink">
    <!-- Generator: Sketch 43.2 (39069) - http://www.bohemiancoding.com/sketch -->
    <title>inventure-hero-bg</title>
    <desc>Created with Sketch.</desc>
    <defs>
        <linearGradient x1="50%" y1="-7.60166917%" x2="50%" y2="100%" id="linearGradient-1">
            <stop stop-color="#353D44" offset="0%"></stop>
            <stop stop-color="#1C232B" offset="100%"></stop>
        </linearGradient>
        <rect id="path-2" x="0" y="0" width="1171" height="594"></rect>
    </defs>
    <g id="Page-1" stroke="none" stroke-width="1" fill="none" fill-rule="evenodd">
        <g id="inventure-hero-bg">
            <mask id="mask-3" fill="white">
                <use xlink:href="#path-2"></use>
            </mask>
            <use id="Mask" fill="url(#linearGradient-1)" xlink:href="#path-2"></use>
            <g id="Group-9" opacity="0.100000001" mask="url(#mask-3)">
                <g transform="translate(253.430249, 238.791325) rotate(-311.000000) translate(-253.430249, -238.791325) translate(-26.069751, 19.791325)">
                    <path d="M382.765803,134.54922 L429.961722,161.797797 L429.961722,216.29495 L382.765803,243.543526 L335.569884,216.29495 L335.569884,161.797797 L382.765803,134.54922 Z" id="Polygon" stroke="#C7D1D5" stroke-width="2" fill="none"></path>
                    <path d="M336.035239,52.1334978 L383.231158,79.3820744 L383.231158,133.879227 L336.035239,161.127804 L288.83932,133.879227 L288.83932,79.3820744 L336.035239,52.1334978 Z" id="Polygon-Copy-3" stroke="#C7D1D5" stroke-width="2" fill="none"></path>
                    <path d="M506.814209,327.419003 L554.010128,354.66758 L554.010128,409.164733 L506.814209,436.413309 L459.61829,409.164733 L459.61829,354.66758 L506.814209,327.419003 Z" id="Polygon-Copy-7" stroke="#C7D1D5" stroke-width="2" fill="none"></path>
                    <path d="M98.9838313,133.699573 L146.17975,160.94815 L146.17975,215.445303 L98.9838313,242.69388 L51.7879123,215.445303 L51.7879123,160.94815 L98.9838313,133.699573 Z" id="Polygon-Copy-4" stroke="#C7D1D5" stroke-width="2" fill="none"></path>
                    <path d="M288.828918,276.440206 L318.365264,293.493023 L318.365264,327.598657 L288.828918,344.651474 L259.292573,327.598657 L259.292573,293.493023 L288.828918,276.440206 Z" id="Polygon-Copy" stroke="#C7D1D5" stroke-width="2" fill="none"></path>
                    <path d="M193.422593,276.440206 L210.817982,286.483438 L210.817982,306.569903 L193.422593,316.613136 L176.027204,306.569903 L176.027204,286.483438 L193.422593,276.440206 Z" id="Polygon-Copy-6" stroke="#C7D1D5" stroke-width="2" fill="none"></path>
                    <path d="M365.900857,334.216176 L383.296246,344.259408 L383.296246,364.345873 L365.900857,374.389106 L348.505468,364.345873 L348.505468,344.259408 L365.900857,334.216176 Z" id="Polygon-Copy-8" stroke="#C7D1D5" stroke-width="2" fill="none"></path>
                    <path d="M506.338453,226.311055 L535.874799,243.363872 L535.874799,277.469506 L506.338453,294.522324 L476.802108,277.469506 L476.802108,243.363872 L506.338453,226.311055 Z" id="Polygon-Copy-2" stroke="#C7D1D5" stroke-width="2" fill="none"></path>
                    <path d="M459.607889,1.15470054 L489.144235,18.2075177 L489.144235,52.3131519 L459.607889,69.365969 L430.071544,52.3131519 L430.071544,18.2075177 L459.607889,1.15470054 Z" id="Polygon-Copy-5" stroke="#C7D1D5" stroke-width="2" fill="none"></path>
                    <g id="Group-6" stroke="none" stroke-width="1" fill="none" fill-rule="evenodd" transform="translate(429.921190, 130.845580)">
                        <circle id="Oval-3" fill="#C7D1D5" cx="46.7305641" cy="3.39858648" r="3.39858648"></circle>
                        <rect id="Rectangle-25" fill="#C7D1D5" transform="translate(23.970921, 16.879101) rotate(60.000000) translate(-23.970921, -16.879101) " x="23.1212745" y="-10.3095905" width="1.69929324" height="54.3773837"></rect>
                    </g>
                    <g id="Group-6-Copy" stroke="none" stroke-width="1" fill="none" fill-rule="evenodd" transform="translate(212.411655, 324.565009)">
                        <circle id="Oval-3" fill="#C7D1D5" cx="46.7305641" cy="3.39858648" r="3.39858648"></circle>
                        <rect id="Rectangle-25" fill="#C7D1D5" transform="translate(23.970921, 16.879101) rotate(60.000000) translate(-23.970921, -16.879101) " x="23.1212745" y="-10.3095905" width="1.69929324" height="54.3773837"></rect>
                    </g>
                    <circle id="Oval-3" stroke="none" fill="#C7D1D5" fill-rule="evenodd" transform="translate(318.617483, 327.113949) scale(-1, 1) translate(-318.617483, -327.113949) " cx="318.617483" cy="327.113949" r="3.39858648"></circle>
                    <rect id="Rectangle-25" stroke="none" fill="#C7D1D5" fill-rule="evenodd" transform="translate(334.608264, 336.346231) scale(-1, 1) rotate(60.000000) translate(-334.608264, -336.346231) " x="333.758617" y="319.353298" width="1.69929324" height="33.9858648"></rect>
                    <g id="Group-6-Copy-2" stroke="none" stroke-width="1" fill="none" fill-rule="evenodd" transform="translate(5.097880, 212.411655)">
                        <circle id="Oval-3" fill="#C7D1D5" cx="46.7305641" cy="3.39858648" r="3.39858648"></circle>
                        <rect id="Rectangle-25" fill="#C7D1D5" transform="translate(23.970921, 16.879101) rotate(60.000000) translate(-23.970921, -16.879101) " x="23.1212745" y="-10.3095905" width="1.69929324" height="54.3773837"></rect>
                    </g>
                    <rect id="Rectangle-25" stroke="none" fill="#C7D1D5" fill-rule="evenodd" transform="translate(406.311901, 66.158605) rotate(60.000000) translate(-406.311901, -66.158605) " x="405.462254" y="38.9699135" width="1.69929324" height="54.3773837"></rect>
                    <rect id="Rectangle-25-Copy-2" stroke="none" fill="#C7D1D5" fill-rule="evenodd" transform="translate(453.892111, 230.140403) scale(-1, 1) rotate(60.000000) translate(-453.892111, -230.140403) " x="453.042465" y="202.951711" width="1.69929324" height="54.3773837"></rect>
                    <rect id="Rectangle-25-Copy-3" stroke="none" fill="#C7D1D5" fill-rule="evenodd" transform="translate(264.420915, 229.290757) scale(-1, 1) rotate(60.000000) translate(-264.420915, -229.290757) " x="263.571268" y="202.102065" width="1.69929324" height="54.3773837"></rect>
                    <rect id="Rectangle-25-Copy-4" stroke="none" fill="#C7D1D5" fill-rule="evenodd" transform="translate(169.079678, 229.290757) scale(-1, 1) rotate(60.000000) translate(-169.079678, -229.290757) " x="168.230031" y="202.102065" width="1.69929324" height="54.3773837"></rect>
                    <rect id="Rectangle-25-Copy" stroke="none" fill="#C7D1D5" fill-rule="evenodd" transform="translate(312.001126, 230.140403) rotate(60.000000) translate(-312.001126, -230.140403) " x="311.151479" y="202.951711" width="1.69929324" height="54.3773837"></rect>
                    <rect id="Rectangle-25-Copy-6" stroke="none" fill="#C7D1D5" fill-rule="evenodd" transform="translate(216.659888, 230.140403) rotate(60.000000) translate(-216.659888, -230.140403) " x="215.810242" y="202.951711" width="1.69929324" height="54.3773837"></rect>
                    <rect id="Rectangle-25" stroke="none" fill="#C7D1D5" fill-rule="evenodd" transform="translate(506.389386, 311.820310) scale(-1, 1) translate(-506.389386, -311.820310) " x="505.539739" y="295.677024" width="1.69929324" height="32.2865716"></rect>
                    <circle id="Oval-3-Copy" stroke="none" fill="#C7D1D5" fill-rule="evenodd" cx="506.389386" cy="293.977731" r="3.39858648"></circle>
                    <circle id="Oval-3-Copy-5" stroke="none" fill="#C7D1D5" fill-rule="evenodd" cx="506.389386" cy="327.963596" r="3.39858648"></circle>
                    <circle id="Oval-3-Copy-4" stroke="none" fill="#00AAF9" fill-rule="evenodd" cx="429.92119" cy="20.3915189" r="5.09787973"></circle>
                    <circle id="Oval-3-Copy-6" stroke="none" fill="#00AAF9" fill-rule="evenodd" cx="211.562009" cy="354.302641" r="5.09787973"></circle>
                    <circle id="Oval-3-Copy-7" stroke="none" fill="#00AAF9" fill-rule="evenodd" cx="5.09787973" cy="243.84858" r="5.09787973"></circle>
                    <circle id="Oval-3-Copy-12" stroke="none" fill="#C7D1D5" fill-rule="evenodd" cx="383.190626" cy="79.0171357" r="5.09787973"></circle>
                    <circle id="Oval-3-Copy-8" stroke="none" fill="#00AAF9" fill-rule="evenodd" cx="429.071544" cy="217.509535" r="5.09787973"></circle>
                    <circle id="Oval-3-Copy-9" stroke="none" fill="#00AAF9" fill-rule="evenodd" cx="288.879851" cy="133.394519" r="5.09787973"></circle>
                    <circle id="Oval-3-Copy-10" stroke="none" fill="#00AAF9" fill-rule="evenodd" cx="240.449994" cy="216.659888" r="5.09787973"></circle>
                    <circle id="Oval-3-Copy-11" stroke="none" fill="#00AAF9" fill-rule="evenodd" cx="553.11995" cy="409.529671" r="5.09787973"></circle>
                    <g id="Group-8" stroke="none" stroke-width="1" fill="none" fill-rule="evenodd" transform="translate(189.471196, 239.600347)">
                        <rect id="Rectangle-25-Copy-5" fill="#C7D1D5" transform="translate(4.067417, 21.241166) scale(-1, 1) translate(-4.067417, -21.241166) " x="3.2177707" y="5.09787973" width="1.69929324" height="32.2865716"></rect>
                        <circle id="Oval-3-Copy-2" fill="#C7D1D5" cx="4.06741733" cy="3.39858648" r="3.39858648"></circle>
                    </g>
                    <g id="Group-8-Copy" stroke="none" stroke-width="1" fill="none" fill-rule="evenodd" transform="translate(284.631618, 239.600347)">
                        <rect id="Rectangle-25-Copy-5" fill="#C7D1D5" transform="translate(4.067417, 21.241166) scale(-1, 1) translate(-4.067417, -21.241166) " x="3.2177707" y="5.09787973" width="1.69929324" height="32.2865716"></rect>
                        <circle id="Oval-3-Copy-2" fill="#C7D1D5" cx="4.06741733" cy="3.39858648" r="3.39858648"></circle>
                    </g>
                </g>
            </g>
            <g id="Group-9-Copy" opacity="0.100000001" mask="url(#mask-3)">
                <g transform="translate(837.251878, 358.820467) rotate(206.000000) translate(-837.251878, -358.820467) translate(541.251878, 126.820467)">
                    <path d="M405.8381,142.589954 L455.939165,171.515817 L455.939165,229.367544 L405.8381,258.293408 L355.737035,229.367544 L355.737035,171.515817 L405.8381,142.589954 Z" id="Polygon" stroke="#C7D1D5" stroke-width="2" fill="none"></path>
                    <path d="M356.290718,55.2063898 L406.391783,84.1322532 L406.391783,141.98398 L356.290718,170.909844 L306.189653,141.98398 L306.189653,84.1322532 L356.290718,55.2063898 Z" id="Polygon-Copy-3" stroke="#C7D1D5" stroke-width="2" fill="none"></path>
                    <path d="M537.363877,347.085512 L587.464942,376.011375 L587.464942,433.863102 L537.363877,462.788965 L487.262812,433.863102 L487.262812,376.011375 L537.363877,347.085512 Z" id="Polygon-Copy-7" stroke="#C7D1D5" stroke-width="2" fill="none"></path>
                    <path d="M104.950363,141.689093 L155.051428,170.614956 L155.051428,228.466683 L104.950363,257.392546 L54.8492981,228.466683 L54.8492981,170.614956 L104.950363,141.689093 Z" id="Polygon-Copy-4" stroke="#C7D1D5" stroke-width="2" fill="none"></path>
                    <path d="M306.238903,293.033822 L337.615914,311.149348 L337.615914,347.380399 L306.238903,365.495925 L274.861892,347.380399 L274.861892,311.149348 L306.238903,293.033822 Z" id="Polygon-Copy" stroke="#C7D1D5" stroke-width="2" fill="none"></path>
                    <path d="M205.08169,293.033822 L223.585913,303.717241 L223.585913,325.084077 L205.08169,335.767496 L186.577466,325.084077 L186.577466,303.717241 L205.08169,293.033822 Z" id="Polygon-Copy-6" stroke="#C7D1D5" stroke-width="2" fill="none"></path>
                    <path d="M387.956572,354.292404 L406.460795,364.975822 L406.460795,386.342659 L387.956572,397.026077 L369.452348,386.342659 L369.452348,364.975822 L387.956572,354.292404 Z" id="Polygon-Copy-8" stroke="#C7D1D5" stroke-width="2" fill="none"></path>
                    <path d="M536.859444,239.882995 L568.236454,257.99852 L568.236454,294.229571 L536.859444,312.345097 L505.482433,294.229571 L505.482433,257.99852 L536.859444,239.882995 Z" id="Polygon-Copy-2" stroke="#C7D1D5" stroke-width="2" fill="none"></path>
                    <path d="M487.312062,1.15470054 L518.689073,19.2702261 L518.689073,55.5012773 L487.312062,73.6168029 L455.935051,55.5012773 L455.935051,19.2702261 L487.312062,1.15470054 Z" id="Polygon-Copy-5" stroke="#C7D1D5" stroke-width="2" fill="none"></path>
                    <g id="Group-6" stroke="none" stroke-width="1" fill="none" fill-rule="evenodd" transform="translate(455.835913, 138.732669)">
                        <circle id="Oval-3" fill="#C7D1D5" cx="49.5473818" cy="3.60344595" r="3.60344595"></circle>
                        <rect id="Rectangle-25" fill="#C7D1D5" transform="translate(25.415837, 17.896537) rotate(60.000000) translate(-25.415837, -17.896537) " x="24.5149751" y="-10.9310304" width="1.80172297" height="57.6551352"></rect>
                    </g>
                    <g id="Group-6-Copy" stroke="none" stroke-width="1" fill="none" fill-rule="evenodd" transform="translate(225.215372, 344.129088)">
                        <circle id="Oval-3" fill="#C7D1D5" cx="49.5473818" cy="3.60344595" r="3.60344595"></circle>
                        <rect id="Rectangle-25" fill="#C7D1D5" transform="translate(25.415837, 17.896537) rotate(60.000000) translate(-25.415837, -17.896537) " x="24.5149751" y="-10.9310304" width="1.80172297" height="57.6551352"></rect>
                    </g>
                    <circle id="Oval-3" stroke="none" fill="#C7D1D5" fill-rule="evenodd" transform="translate(337.823058, 346.831673) scale(-1, 1) translate(-337.823058, -346.831673) " cx="337.823058" cy="346.831673" r="3.60344595"></circle>
                    <rect id="Rectangle-25" stroke="none" fill="#C7D1D5" fill-rule="evenodd" transform="translate(354.777729, 356.620456) scale(-1, 1) rotate(60.000000) translate(-354.777729, -356.620456) " x="353.876867" y="338.603227" width="1.80172297" height="36.0344595"></rect>
                    <g id="Group-6-Copy-2" stroke="none" stroke-width="1" fill="none" fill-rule="evenodd" transform="translate(5.405169, 225.215372)">
                        <circle id="Oval-3" fill="#C7D1D5" cx="49.5473818" cy="3.60344595" r="3.60344595"></circle>
                        <rect id="Rectangle-25" fill="#C7D1D5" transform="translate(25.415837, 17.896537) rotate(60.000000) translate(-25.415837, -17.896537) " x="24.5149751" y="-10.9310304" width="1.80172297" height="57.6551352"></rect>
                    </g>
                    <rect id="Rectangle-25" stroke="none" fill="#C7D1D5" fill-rule="evenodd" transform="translate(430.803506, 70.146503) rotate(60.000000) translate(-430.803506, -70.146503) " x="429.902644" y="41.3189359" width="1.80172297" height="57.6551352"></rect>
                    <rect id="Rectangle-25-Copy-2" stroke="none" fill="#C7D1D5" fill-rule="evenodd" transform="translate(481.251749, 244.012770) scale(-1, 1) rotate(60.000000) translate(-481.251749, -244.012770) " x="480.350888" y="215.185203" width="1.80172297" height="57.6551352"></rect>
                    <rect id="Rectangle-25-Copy-3" stroke="none" fill="#C7D1D5" fill-rule="evenodd" transform="translate(280.359638, 243.111909) scale(-1, 1) rotate(60.000000) translate(-280.359638, -243.111909) " x="279.458776" y="214.284341" width="1.80172297" height="57.6551352"></rect>
                    <rect id="Rectangle-25-Copy-4" stroke="none" fill="#C7D1D5" fill-rule="evenodd" transform="translate(179.271436, 243.111909) scale(-1, 1) rotate(60.000000) translate(-179.271436, -243.111909) " x="178.370574" y="214.284341" width="1.80172297" height="57.6551352"></rect>
                    <rect id="Rectangle-25-Copy" stroke="none" fill="#C7D1D5" fill-rule="evenodd" transform="translate(330.807881, 244.012770) rotate(60.000000) translate(-330.807881, -244.012770) " x="329.907019" y="215.185203" width="1.80172297" height="57.6551352"></rect>
                    <rect id="Rectangle-25-Copy-6" stroke="none" fill="#C7D1D5" fill-rule="evenodd" transform="translate(229.719679, 244.012770) rotate(60.000000) translate(-229.719679, -244.012770) " x="228.818818" y="215.185203" width="1.80172297" height="57.6551352"></rect>
                    <rect id="Rectangle-25" stroke="none" fill="#C7D1D5" fill-rule="evenodd" transform="translate(536.913446, 330.616166) scale(-1, 1) translate(-536.913446, -330.616166) " x="536.012585" y="313.499798" width="1.80172297" height="34.2327365"></rect>
                    <circle id="Oval-3-Copy" stroke="none" fill="#C7D1D5" fill-rule="evenodd" cx="536.913446" cy="311.698075" r="3.60344595"></circle>
                    <circle id="Oval-3-Copy-5" stroke="none" fill="#C7D1D5" fill-rule="evenodd" cx="536.913446" cy="347.732534" r="3.60344595"></circle>
                    <circle id="Oval-3-Copy-4" stroke="none" fill="#00AAF9" fill-rule="evenodd" cx="455.835913" cy="21.6206757" r="5.40516892"></circle>
                    <circle id="Oval-3-Copy-6" stroke="none" fill="#00AAF9" fill-rule="evenodd" cx="224.31451" cy="375.65924" r="5.40516892"></circle>
                    <circle id="Oval-3-Copy-7" stroke="none" fill="#00AAF9" fill-rule="evenodd" cx="5.40516892" cy="258.547247" r="5.40516892"></circle>
                    <circle id="Oval-3-Copy-12" stroke="none" fill="#C7D1D5" fill-rule="evenodd" cx="406.288531" cy="83.7801183" r="5.40516892"></circle>
                    <circle id="Oval-3-Copy-8" stroke="none" fill="#00AAF9" fill-rule="evenodd" cx="454.935051" cy="230.620541" r="5.40516892"></circle>
                    <circle id="Oval-3-Copy-9" stroke="none" fill="#00AAF9" fill-rule="evenodd" cx="306.292906" cy="141.435254" r="5.40516892"></circle>
                    <circle id="Oval-3-Copy-10" stroke="none" fill="#00AAF9" fill-rule="evenodd" cx="254.943801" cy="229.719679" r="5.40516892"></circle>
                    <circle id="Oval-3-Copy-11" stroke="none" fill="#00AAF9" fill-rule="evenodd" cx="586.460828" cy="434.215237" r="5.40516892"></circle>
                    <g id="Group-8" stroke="none" stroke-width="1" fill="none" fill-rule="evenodd" transform="translate(200.892112, 254.042939)">
                        <rect id="Rectangle-25-Copy-5" fill="#C7D1D5" transform="translate(4.312592, 22.521537) scale(-1, 1) translate(-4.312592, -22.521537) " x="3.41173098" y="5.40516892" width="1.80172297" height="34.2327365"></rect>
                        <circle id="Oval-3-Copy-2" fill="#C7D1D5" cx="4.31259247" cy="3.60344595" r="3.60344595"></circle>
                    </g>
                    <g id="Group-8-Copy" stroke="none" stroke-width="1" fill="none" fill-rule="evenodd" transform="translate(301.788598, 254.042939)">
                        <rect id="Rectangle-25-Copy-5" fill="#C7D1D5" transform="translate(4.312592, 22.521537) scale(-1, 1) translate(-4.312592, -22.521537) " x="3.41173098" y="5.40516892" width="1.80172297" height="34.2327365"></rect>
                        <circle id="Oval-3-Copy-2" fill="#C7D1D5" cx="4.31259247" cy="3.60344595" r="3.60344595"></circle>
                    </g>
                </g>
            </g>
        </g>
    </g>
</svg>